# xmcd CD database file
# Copyright (C) 1997 Ti Kan
# 
# Track frame offsets:
#     150
#     33112
#     47380
#     62037
#     79337
#     96585
#     113205
#     128977
#     143175
#     158080
#     171370
#     187487
#     203650
# 
# Disc length: 2921 seconds
# 
# Revision: 1
# Processed by: cddbd v1.4b41PL1 Copyright (c) Steve Scherf et al.
# Submitted via: DiscPlay 4.0.3
# 
DISCID=ba0b670d
DTITLE=various Uni Country Spins Fall '97 - Country Music Spins (Fall '97)
DYEAR=1900
DGENRE=
TTITLE0=All You Ever Do Is Bring Me Down (Mavericks)
TTITLE1=Just Don't Wait Around If She's Leaving (David Lee Murphy)
TTITLE2=Heaven Help Her Heart  (Jason McCoy)
TTITLE3=Shut Up and drive  (Chely Wright)
TTITLE4=One Night AT A Time (George Strait)
TTITLE5=Back When We Were Beautiful (Matraca Berg)
TTITLE6=You Said (Farmer's Daughter)
TTITLE7=When Love Start's Talking (Wynonna)
TTITLE8=Falling (Raybon Bros. w/Olivia Newton John)
TTITLE9=Old Weakness (Delbert Mcclinton)
TTITLE10=In Another's Eye's (Trisha Yearwood - Garth Brooks)
TTITLE11=You've Got To Talk To Me (Lee Ann Womack)
TTITLE12=Thank God For Believers (Mark Chesnutt)
EXTD=
EXTT0=
EXTT1=
EXTT2=
EXTT3=
EXTT4=
EXTT5=
EXTT6=
EXTT7=
EXTT8=
EXTT9=
EXTT10=
EXTT11=
EXTT12=
PLAYORDER=
